# xmcd
#
# Track frame offsets:
#	150
#	23870
#	43382
#	64250
#	86737
#	109402
#	132165
#	152135
#	176430
#	201382
#	220402
#	242510
#	263875
#	285102
#	302267
#	318970
#	340720
#
# Disc length: 4757 seconds
#
# Revision: 1
# Processed by: cddbd v1.5.2PL0 Copyright (c) Steve Scherf et al.
# Submitted via: EasyCDDAExtractor 6.0.0.1
#
DISCID=f2129311
DTITLE=Lisa Stansfield - Lisa Stansfield (Remastered)
DYEAR=2003
DGENRE=Blues
TTITLE0=Never Gonna Fall
TTITLE1=The Real Thing
TTITLE2=I'm Leavin'
TTITLE3=Suzanne
TTITLE4=Never, Never Gonna Give You Up
TTITLE5=Don't Cry For Me
TTITLE6=The Line
TTITLE7=The Very Thought Of You
TTITLE8=You Know How To Love Me
TTITLE9=I Cried My Last Tear Last Night
TTITLE10=Honest
TTITLE11=Somewhere In Time
TTITLE12=Go Me Missing You
TTITLE13=Footsteps
TTITLE14=People Hold On (Bootleg Mix)
TTITLE15=Breathtaking
TTITLE16=Baby Come Back
EXTD=YEAR: 2003 ID3G: 0
EXTT0=
EXTT1=
EXTT2=
EXTT3=
EXTT4=
EXTT5=
EXTT6=
EXTT7=
EXTT8=
EXTT9=
EXTT10=
EXTT11=
EXTT12=
EXTT13=
EXTT14=
EXTT15=
EXTT16=
PLAYORDER=
